<svg xmlns="http://www.w3.org/2000/svg" class="titleLogo" width="800" height="800" viewBox="0 0 800 800" style="background-color: white"> <g transform="translate(0,800) scale(0.1,-0.1)" fill="#231f20" stroke="none"> <path d="M0 4000 l0 -4000 4000 0 4000 0 0 4000 0 4000 -4000 0 -4000 0 0 -4000z m6098 3064 c249 -50 454 -248 517 -499 28 -110 26 -290 -4 -385 -62 -200 -176 -335 -356 -422 -110 -52 -205 -71 -325 -64 -52 3 -105 8 -117 12 -14 4 -23 2 -23 -5 0 -6 7 -11 16 -11 28 0 207 -146 320 -262 224 -229 291 -357 301 -573 6 -129 -9 -210 -58 -308 -63 -126 -136 -170 -226 -136 -40 15 -65 40 -158 164 -521 690 -1443 1150 -2770 1381 -115 20 -222 43 -237 50 -32 17 -38 56 -14 90 36 51 202 99 428 125 165 19 614 16 813 -5 424 -46 851 -148 1140 -274 44 -19 95 -41 114 -49 l34 -15 -45 50 c-159 177 -209 485 -117 722 117 305 443 480 767 414z m-4383 -719 c100 -21 242 -94 317 -163 219 -203 279 -519 149 -788 -21 -44 -49 -92 -62 -109 -52 -64 -54 -69 -14 -39 125 97 324 207 484 269 144 54 247 76 368 76 130 1 218 -18 323 -68 95 -46 200 -146 218 -211 27 -92 -19 -165 -124 -195 -152 -45 -308 -99 -408 -142 -207 -88 -477 -254 -666 -408 -230 -187 -579 -543 -730 -743 -24 -32 -56 -72 -71 -89 -69 -78 -342 -492 -494 -751 -64 -109 -129 -212 -143 -227 -33 -35 -67 -33 -96 6 -18 25 -21 42 -20 125 0 53 9 135 18 182 39 184 146 505 229 685 59 129 209 420 242 470 18 28 40 66 50 85 36 71 189 291 293 421 59 74 163 191 233 260 95 95 116 120 85 102 -23 -13 -84 -38 -136 -55 -88 -30 -105 -32 -225 -32 -116 0 -139 3 -210 28 -110 38 -187 87 -272 173 -57 58 -82 93 -117 166 -56 117 -70 178 -70 297 0 103 13 172 51 264 122 294 479 478 798 411z m5440 -1222 c29 -29 38 -66 37 -163 -1 -207 -84 -557 -214 -900 -193 -509 -439 -921 -774 -1297 l-52 -58 94 47 c124 60 214 82 334 81 113 -1 196 -21 299 -71 87 -43 201 -145 257 -229 86 -130 126 -301 105 -450 -23 -164 -83 -284 -199 -400 -59 -60 -91 -82 -175 -122 -140 -69 -208 -85 -342 -84 -90 0 -125 5 -190 27 -283 92 -475 350 -475 641 0 136 52 293 129 395 19 25 28 40 20 34 -8 -6 -45 -36 -84 -66 -169 -134 -379 -250 -562 -311 -205 -68 -397 -61 -571 23 -143 69 -225 172 -208 263 13 69 57 103 191 147 248 81 528 236 785 436 138 107 395 355 532 514 308 356 602 809 863 1331 105 210 119 229 154 229 16 0 37 -7 46 -17z m-5187 -1677 c18 -11 68 -68 111 -126 378 -504 941 -875 1730 -1140 341 -114 637 -187 1074 -265 109 -19 206 -39 217 -45 84 -45 10 -134 -145 -174 -167 -43 -268 -51 -635 -51 -378 0 -482 8 -785 60 -287 50 -614 145 -834 243 l-108 48 49 -60 c103 -128 150 -267 151 -456 2 -207 -54 -344 -202 -490 -136 -135 -275 -192 -466 -193 -298 -1 -551 184 -641 468 -34 106 -43 277 -20 385 30 144 120 289 236 382 123 99 229 138 390 145 63 3 134 0 158 -5 24 -6 44 -6 48 -1 3 5 -2 9 -10 9 -26 0 -207 144 -310 246 -108 109 -203 229 -243 307 -100 198 -105 409 -14 592 45 91 72 121 128 140 44 16 75 11 121 -19z"></path> </g> </svg>