<svg xmlns="http://www.w3.org/2000/svg" width="340" height="15" viewBox="0 0 170 7.5" fill="#012646">
  <g transform="scale(3 1)">
    <polygon points="328.64 0 340 11.38 340 7.57 332.44 0 328.64 0"/>
    <polygon points="49.05 0 64.02 15 67.84 15 52.86 0 49.05 0"/>
    <polygon points="230.4 0 245.38 15 249.18 15 234.21 0 230.4 0"/>
    <polygon points="18.82 0 33.8 15 37.61 15 22.64 0 18.82 0"/>
    <polygon points="290.85 0 305.83 15 309.63 15 294.66 0 290.85 0"/>
    <polygon points="237.96 0 252.93 15 256.74 15 241.76 0 237.96 0"/>
    <polygon points="33.95 0 48.92 15 52.72 15 37.75 0 33.95 0"/>
    <polygon points="56.6 0 71.58 15 75.39 15 60.42 0 56.6 0"/>
    <polygon points="222.84 0 237.81 15 241.63 15 226.65 0 222.84 0"/>
    <polygon points="11.27 0 26.25 15 30.05 15 15.07 0 11.27 0"/>
    <polygon points="215.29 0 230.26 15 234.06 15 219.09 0 215.29 0"/>
    <polygon points="26.38 0 41.36 15 45.16 15 30.19 0 26.38 0"/>
    <polygon points="101.95 0 116.92 15 120.72 15 105.75 0 101.95 0"/>
    <polygon points="260.63 0 275.6 15 279.4 15 264.43 0 260.63 0"/>
    <polygon points="268.19 0 283.16 15 286.96 15 271.99 0 268.19 0"/>
    <polygon points="275.73 0 290.71 15 294.52 15 279.54 0 275.73 0"/>
    <polygon points="41.5 0 56.47 15 60.27 15 45.3 0 41.5 0"/>
    <polygon points="109.5 0 124.48 15 128.28 15 113.3 0 109.5 0"/>
    <polygon points="207.73 0 222.71 15 226.51 15 211.54 0 207.73 0"/>
    <polygon points="245.51 0 260.49 15 264.3 15 249.32 0 245.51 0"/>
    <polygon points="283.29 0 298.26 15 302.08 15 287.1 0 283.29 0"/>
    <polygon points="253.07 0 268.05 15 271.86 15 256.88 0 253.07 0"/>
    <polygon points="94.39 0 109.36 15 113.17 15 98.2 0 94.39 0"/>
    <polygon points="169.96 0 184.93 15 188.73 15 173.75 0 169.96 0"/>
    <polygon points="154.84 0 169.81 15 173.62 15 158.65 0 154.84 0"/>
    <polygon points="71.72 0 86.69 15 90.5 15 75.52 0 71.72 0"/>
    <polygon points="313.52 0 328.49 15 332.3 15 317.32 0 313.52 0"/>
    <polygon points="124.61 0 139.59 15 143.4 15 128.42 0 124.61 0"/>
    <polygon points="162.4 0 177.37 15 181.18 15 166.2 0 162.4 0"/>
    <polygon points="79.27 0 94.25 15 98.06 15 83.08 0 79.27 0"/>
    <polygon points="340 0 336.19 0 340 3.82 340 0 340 0"/>
    <polygon points="3.71 0 18.69 15 22.5 15 7.52 0 3.71 0"/>
    <polygon points="139.72 0 154.7 15 158.51 15 143.53 0 139.72 0"/>
    <polygon points="86.83 0 101.81 15 105.62 15 90.64 0 86.83 0"/>
    <polygon points="132.17 0 147.15 15 150.94 15 135.97 0 132.17 0"/>
    <polygon points="147.29 0 162.26 15 166.06 15 151.09 0 147.29 0"/>
    <polygon points="192.62 0 207.6 15 211.4 15 196.43 0 192.62 0"/>
    <polygon points="117.06 0 132.03 15 135.84 15 120.86 0 117.06 0"/>
    <polygon points="200.18 0 215.15 15 218.96 15 203.98 0 200.18 0"/>
    <polygon points="298.41 0 313.38 15 317.19 15 302.21 0 298.41 0"/>
    <polygon points="0 3.85 11.13 15 14.94 15 0 0.03 0 3.85"/>
    <polygon points="177.51 0 192.48 15 196.29 15 181.31 0 177.51 0"/>
    <polygon points="321.08 0 336.05 15 339.86 15 324.88 0 321.08 0"/>
    <polygon points="64.17 0 79.14 15 82.94 15 67.96 0 64.17 0"/>
    <polygon points="185.06 0 200.03 15 203.84 15 188.87 0 185.06 0"/>
    <polygon points="305.97 0 320.94 15 324.74 15 309.77 0 305.97 0"/>
    <polygon points="0 11.42 3.58 15 7.38 15 0 7.61 0 11.42"/>
  </g>
</svg>